<?xml version="1.0" encoding="UTF-8" standalone="no"?>
<svg
   xmlns:dc="http://purl.org/dc/elements/1.1/"
   xmlns:cc="http://creativecommons.org/ns#"
   xmlns:rdf="http://www.w3.org/1999/02/22-rdf-syntax-ns#"
   xmlns:svg="http://www.w3.org/2000/svg"
   xmlns="http://www.w3.org/2000/svg"
   viewBox="0 0 33 32"
   height="32"
   width="33"
   id="svg3765"
   version="1.1">
  <metadata
     id="metadata3771">
    <rdf:RDF>
      <cc:Work
         rdf:about="">
        <dc:format>image/svg+xml</dc:format>
        <dc:type
           rdf:resource="http://purl.org/dc/dcmitype/StillImage" />
        <dc:title></dc:title>
      </cc:Work>
    </rdf:RDF>
  </metadata>
  <defs
     id="defs3769" />
  <path
     id="path3803"
     d="M 1.8813559,9.1888859 C 1.8944989,5.6330622 1.8398357,3.0221449 2.43275,2.3644204 2.8598383,1.890648 5.573839,1.9578561 9.3287407,1.9491525 12.42787,1.941969 12.980149,1.9887913 13,3.9366415 13.02022,5.9202815 12.435541,5.9517623 9.7979394,5.9469443 5.7777917,5.9396008 5.7740896,5.9388461 5.7798618,9.7669492 5.7836598,12.285794 5.7518868,12.982087 3.9366415,13 1.8528325,13.020563 1.8696383,12.359098 1.8813559,9.1888859 Z"
     style="fill:#7ab51d;fill-opacity:1" />
  <path
     id="path3803-3"
     d="m 9.0969991,31.13709 c -3.555824,-0.01314 -6.166741,0.04152 -6.824466,-0.551394 -0.4737718,-0.427088 -0.4065638,-3.141089 -0.4152678,-6.895991 -0.0072,-3.099129 0.03964,-3.651407 1.9874888,-3.671258 1.9836402,-0.02022 2.015121,0.564458 2.010303,3.20206 -0.00734,4.020147 -0.0081,4.02385 3.820005,4.018077 2.5188449,-0.0038 3.2151369,0.02797 3.2330499,1.843221 0.02056,2.083809 -0.640901,2.067003 -3.8111129,2.055285 z"
     style="fill:#7ab51d;fill-opacity:1" />
  <path
     id="path3803-5"
     d="m 31.256517,24.00561 c -0.01314,3.555823 0.04152,6.166741 -0.551394,6.824465 -0.427088,0.473773 -3.141089,0.406564 -6.89599,0.415268 -3.09913,0.0072 -3.651409,-0.03964 -3.67126,-1.987489 -0.02022,-1.98364 0.564459,-2.015121 3.202061,-2.010303 4.020148,0.0073 4.02385,0.0081 4.018078,-3.820005 -0.0038,-2.518844 0.02797,-3.215137 1.84322,-3.23305 2.083809,-0.02056 2.067003,0.640902 2.055285,3.811114 z"
     style="fill:#7ab51d;fill-opacity:1" />
  <path
     id="path3803-6"
     d="m 24.077097,1.941969 c 3.555824,0.01314 6.166741,-0.04152 6.824466,0.551394 0.473772,0.427088 0.406564,3.141089 0.415268,6.895991 0.0072,3.099129 -0.03964,3.651408 -1.987489,3.671259 -1.98364,0.02022 -2.015121,-0.564459 -2.010303,-3.2020597 0.0073,-4.0201493 0.0081,-4.0238513 -3.820005,-4.0180783 -2.518844,0.0038 -3.215137,-0.02797 -3.23305,-1.843221 -0.02056,-2.083809 0.640902,-2.067003 3.811113,-2.055285 z"
     style="fill:#7ab51d;fill-opacity:1" />
</svg>
