<svg width="24" height="24" xmlns="http://www.w3.org/2000/svg"><g transform="translate(0 -1028.362)"><circle style="fill:none;fill-opacity:1;stroke:#000;stroke-width:1.5;stroke-miterlimit:4;stroke-dasharray:none;stroke-dashoffset:0;stroke-opacity:1" cx="2.75" cy="1049.612" r="2"/><circle style="fill:none;fill-opacity:1;stroke:#000;stroke-width:1.5;stroke-miterlimit:4;stroke-dasharray:none;stroke-dashoffset:0;stroke-opacity:1" cx="2.75" cy="1040.362" r="2"/><circle style="fill:none;fill-opacity:1;stroke:#000;stroke-width:1.5;stroke-miterlimit:4;stroke-dasharray:none;stroke-dashoffset:0;stroke-opacity:1" cx="2.75" cy="1031.112" r="2"/><circle style="fill:#000;fill-opacity:1;stroke:none;stroke-width:1.5;stroke-miterlimit:4;stroke-dasharray:none;stroke-dashoffset:0;stroke-opacity:1" cx="21.25" cy="1049.443" r="2"/><circle style="fill:#000;fill-opacity:1;stroke:none;stroke-width:1.5;stroke-miterlimit:4;stroke-dasharray:none;stroke-dashoffset:0;stroke-opacity:1" cx="21.25" cy="1040.362" r="2"/><circle style="fill:#000;fill-opacity:1;stroke:none;stroke-width:1.5;stroke-miterlimit:4;stroke-dasharray:none;stroke-dashoffset:0;stroke-opacity:1" cx="21.25" cy="1031.112" r="2"/><path style="color:#000;fill:#000;stroke-width:.958745;-inkscape-stroke:none" d="M6.193 1030.612v1.5h10.093l.017 1.75 2.304-2.5-2.321-2.5v1.75zM6.532 1041.473l-.717 1.318 10.341 5.623-.82 1.546 3.219-1.096-.846-3.305-.836 1.537z"/><path style="color:#000;fill:#000;stroke-width:.958745;-inkscape-stroke:none" d="m6.496 1048.367-.717-1.318 10.341-5.623-.82-1.546 3.219 1.096-.846 3.305-.836-1.537z"/></g></svg>