<svg width="24" height="24" viewBox="0 0 24 24" fill="none" xmlns="http://www.w3.org/2000/svg" preserveAspectRatio="xMinYMid meet"><defs><style>.cls-1{fill:none;stroke:#000;stroke-width:1.5px}.cls-2{fill:#000;stroke-width:0}</style></defs><circle class="cls-1" cx="4.9" cy="19.2" r="1.5"/><circle class="cls-1" cx="4.9" cy="12.1" r="1.5"/><circle class="cls-1" cx="4.9" cy="5" r="1.5"/><circle class="cls-2" cx="19.1" cy="19.1" r="1.5"/><circle class="cls-2" cx="19.1" cy="12.1" r="1.5"/><circle class="cls-2" cx="19.1" cy="5" r="1.5"/><path class="cls-2" d="M7.5 4.6v1.2h7.8v1.3l1.8-1.9-1.8-1.9v1.3H7.5zm.3 8.4l-.6 1 8 4.3-.6 1.2 2.5-.8-.7-2.5-.6 1.2-8-4.3z"/><path class="cls-2" d="M7.8 18.3l-.6-1 8-4.3-.6-1.2 2.5.8-.7 2.5-.6-1.2-8 4.3z"/></svg>
